<svg id="Group_6" data-name="Group 6" xmlns="http://www.w3.org/2000/svg" xmlns:xlink="http://www.w3.org/1999/xlink" width="50" height="55.304" viewBox="0 0 50 55.304">
  <defs>
    <clipPath id="clip-path">
      <rect id="Rectangle_11" data-name="Rectangle 11" width="50" height="55.304" fill="none"/>
    </clipPath>
  </defs>
  <g id="Group_6-2" data-name="Group 6" transform="translate(0 0)" clip-path="url(#clip-path)">
    <path id="Path_21" data-name="Path 21" d="M24.817,0V55.3A25.1,25.1,0,0,1,0,30.229V0Z" transform="translate(0 0)" fill="#424242"/>
    <path id="Path_22" data-name="Path 22" d="M36.589,0V30.379A24.923,24.923,0,0,1,11.665,55.3H11.6V0Z" transform="translate(13.411 0)"/>
    <path id="Path_23" data-name="Path 23" d="M23.843,26.557a5.152,5.152,0,0,1-.746,0,17.8,17.8,0,0,0-8.1.545c-.886.259-1.028.157-1.173-.763-.093-.574-.218-1.141-.349-1.705a1.634,1.634,0,0,1,.25-1.315,5.583,5.583,0,0,0,.63-5.254c-.511-1.3-.882-2.643-1.326-3.965-.153-.457-.349-.9-.509-1.358a1.477,1.477,0,0,0-1.565-1.119c-1.175-.019-1.4-.31-1.134-1.464.244-1.061.574-1.311,1.675-1.386a4.509,4.509,0,0,0,.837-.285,10.567,10.567,0,0,1,1.721-.429c.565-.06.722-.3.69-.819-.041-.649.082-1.33-.554-1.8-.114-.086-.22-.371-.164-.464.27-.448,0-.852-.037-1.272a2.393,2.393,0,0,1,2.8-2.538,2.32,2.32,0,0,1,2.374,2.538,24.253,24.253,0,0,1-.414,3.5c-.047.278-.418.5-.612.761a.912.912,0,0,0-.222.5c.013.218.084.53.239.625a5.988,5.988,0,0,1,2.831,5.091c.011.166,0,.41-.1.5-.52.433-.285.972-.3,1.492a12.964,12.964,0,0,1-.226,1.591c-.03.19-.1.375-.112.565-.065.742-.078,1.49-.177,2.227a3.226,3.226,0,0,0,1.024,2.822c.845.873,1.654,1.785,2.471,2.687a3.12,3.12,0,0,1,.282.5" transform="translate(11.235 1.321)" fill="#ffdf00"/>
    <path id="Path_24" data-name="Path 24" d="M17.7,17.989c-.14-.379-.293-.757-.423-1.138-.451-1.335-.923-2.663-1.328-4.01a2.464,2.464,0,0,0-2.262-1.932.862.862,0,0,1-.8-.854,2.519,2.519,0,0,1,.694-2.139,2.709,2.709,0,0,0,.692-3.12c-.058-.153.034-.362.058-.545.16.114.379.2.459.351a1.567,1.567,0,0,1,.06.619c.009.278,0,.561,0,.839.065.006.127.013.192.022.244-.457.461-.929.737-1.365a1.9,1.9,0,0,0,.063-1.833,1.661,1.661,0,0,0-1.427-1.024,1.538,1.538,0,0,0-1.5.9c-.127.593-.464.537-.934.545a5.938,5.938,0,0,0-1.966.33c-.88.334-1.294,2.135-.8,2.941a4.421,4.421,0,0,1,.4,1.026c.181.584.224,1.251.817,1.6a.935.935,0,0,1,.487,1.173,1.131,1.131,0,0,1-1.044.867,3.423,3.423,0,0,0-1.117.241,1.012,1.012,0,0,0-.52.679,1.6,1.6,0,0,1-.871,1.393,2.346,2.346,0,0,0-.5,3.312A25.288,25.288,0,0,1,8.553,20.38c.039.084,0,.2.022.289a16.342,16.342,0,0,0,.936,4.051A1.817,1.817,0,0,1,9.476,26.4a14.489,14.489,0,0,0-.63,1.621,3.213,3.213,0,0,0-.08.712,2.724,2.724,0,0,0,.727-.009c2.009-.569,4.008-1.175,6.022-1.731.6-.166.813-.479.638-1.054a3.37,3.37,0,0,1,.712-3.437,2.057,2.057,0,0,0,.28-.5,4.988,4.988,0,0,0,.556-4.006M16.417,19.33c-.321.888-.524,1.818-.778,2.727-.069.244-.11.543-.485.321a5.18,5.18,0,0,1-2.078-3.941,7.688,7.688,0,0,1,.959-3.208c.188-.423.425-.4.651-.009.5.867,1,1.74,1.537,2.589a1.573,1.573,0,0,1,.194,1.52" transform="translate(7.412 2.149)" fill="#ffdf00"/>
    <path id="Path_25" data-name="Path 25" d="M14.487,5.329a1.363,1.363,0,0,1,1.492,1.412,3.456,3.456,0,0,0,.444,1.376,14.957,14.957,0,0,1,.658,2.613,3.562,3.562,0,0,1,.03.561c1.3-.673,2.551-1.261,3.739-1.966.69-.41.77.405,1.2.444a1.848,1.848,0,0,1-.226.63Q19.938,12.516,18,14.6a2.827,2.827,0,0,1-.8.563,1.261,1.261,0,0,1-1.9-1.169,5.858,5.858,0,0,1,.17-.966A8.995,8.995,0,0,0,15.7,11.6c.006-.6-.162-1.182.285-1.759.181-.235.041-.746,0-1.125a5.334,5.334,0,0,0-1.361-3.137,1.2,1.2,0,0,1-.138-.252" transform="translate(16.748 6.156)" fill="#ffdf00"/>
    <path id="Path_26" data-name="Path 26" d="M20.381,4.779A2.725,2.725,0,0,0,17.7,7.5,2.687,2.687,0,0,0,20.381,10.2,2.62,2.62,0,0,0,23.1,7.567a2.7,2.7,0,0,0-2.723-2.788m1.677,3.941a7.2,7.2,0,0,0,.285-1.542,1.459,1.459,0,0,0-1.024-1.3c-1.1-.47-1.966.032-2.633,1.544A1.793,1.793,0,0,1,19.93,5.5a2.188,2.188,0,0,1,2.436.912,1.925,1.925,0,0,1-.308,2.3" transform="translate(20.466 5.525)" fill="#ffdf00"/>
    <path id="Path_27" data-name="Path 27" d="M6.3,10.074a2.085,2.085,0,0,1-2.247-.013,2.124,2.124,0,0,1-.724-2.288,1.878,1.878,0,0,1,1.8-1.231c.034,0,.069,0,.106.009a.773.773,0,0,1,.1.019,1.727,1.727,0,0,1,.207.056l.1.037c.069.024.136.047.2.069l.1.034a5.527,5.527,0,0,0-.867.011,1.492,1.492,0,0,0-1.3,1.013,1.27,1.27,0,0,0,.448,1.464,1.419,1.419,0,0,1,.4-1.979c.752-.52,1.365-.065,1.956.457.024-.054.043-.11.065-.164l-.7-.8h0l0,0,0,0,0,0a1.6,1.6,0,0,1,1.218,1.46A1.917,1.917,0,0,1,6.3,10.074" transform="translate(3.74 7.563)" fill="#ffdf00"/>
    <path id="Path_28" data-name="Path 28" d="M4.548,6.662h0l-.1-.032c.032.011.067.022.1.03l0,0" transform="translate(5.139 7.665)" fill="#ffdf00"/>
    <path id="Path_29" data-name="Path 29" d="M4.552,9.009C5.2,8.658,5.66,8.52,6.273,8.984A10.913,10.913,0,0,0,8.3,9.943,1.028,1.028,0,0,1,8.8,10.3c.336.7.623,1.432.985,2.283-1.917-1.033-3.463-2.4-5.231-3.575" transform="translate(5.263 10.044)" fill="#ffdf00"/>
    <path id="Path_30" data-name="Path 30" d="M4.5,6.646h0v0l0,0" transform="translate(5.192 7.681)" fill="#ffdf00"/>
    <path id="Path_31" data-name="Path 31" d="M15.265,27.018a1.727,1.727,0,0,0-1.464.339,1.156,1.156,0,0,1-.444.088,1.361,1.361,0,0,1-.052-.41c.1-.545.244-1.082.332-1.63s-.091-.705-.634-.617a10.411,10.411,0,0,1-1.052.179A.655.655,0,0,1,11.2,24.3c.16,0,.317,0,.472,0a1.57,1.57,0,0,0,1.66-1.145c.207-.662.14-1.477-.817-1.539-.024,0-.06,0-.069-.019-.075-.134-.207-.267-.211-.4,0-.209-.125-.511.194-.6a.769.769,0,0,1,.882.155,1.414,1.414,0,0,0,1.705.019,1.071,1.071,0,0,1-.231-1.177,1.41,1.41,0,0,0-1.542.382.693.693,0,0,1-.392.235c-.832.078-1.669.134-2.505.181a.486.486,0,0,1-.356-.132,1.366,1.366,0,0,0-1.537-.285c-.071.019-.172.2-.147.261a1.137,1.137,0,0,1-.091,1.149,1.324,1.324,0,0,0,1.6-.28.922.922,0,0,1,.841-.347c.216,0,.3.086.3.315a.856.856,0,0,1-.558.886,1.445,1.445,0,0,0-.841,1.184A2.467,2.467,0,0,0,9.8,24.685a.486.486,0,0,1-.114.712c-.233.181-.489.328-.722.507a.581.581,0,0,0-.213.3c-.052.27-.06.548-.091.867a1.278,1.278,0,0,0,1.218-.207.791.791,0,0,0,.144-1.039.342.342,0,0,1,.073-.313.4.4,0,0,1,.339-.1,1.806,1.806,0,0,0,1.231.043c.22-.052.444-.082.735-.134-.041.2-.058.323-.086.438-.132.526-.278,1.05-.4,1.578-.136.586.009.735.591.64.267-.043.537-.075.8-.132.2-.045.3.024.4.211.093.17.254.39.414.418a4.766,4.766,0,0,0,1.136.011.358.358,0,0,0,.218-.272c-.043-.39-.132-.772-.211-1.2m-4.347-3.534a4.276,4.276,0,0,1,0-.44l-.054-.009a6.386,6.386,0,0,1,.185-.815.55.55,0,0,1,.655-.354c.278.041.375.263.392.509a1.418,1.418,0,0,1-.569,1.421c-.367.241-.565.127-.608-.313" transform="translate(9.502 22.551)" fill="#fff"/>
    <path id="Path_32" data-name="Path 32" d="M20.305,21.255c-.028-.869-.513-1.3-1.371-1.149a7.909,7.909,0,0,1-1.481.1,26.777,26.777,0,0,0-3.243.2,2.334,2.334,0,0,0-2.139,2.3c-.009.744.241,1,1,1,.351,0,.705-.032,1.059-.05.019.03.039.058.06.088-.1.132-.2.265-.3.395-.4.487-.815.957-1.182,1.466a2.169,2.169,0,0,0-.315.8c-.017.08.179.3.27.3.472-.028.942-.106,1.412-.166l-.11-.114a3.248,3.248,0,0,1,.28-.733c.457-.658.97-1.276,1.423-1.936a1.651,1.651,0,0,0,.263-.778c.06-.686.065-1.378.093-2.068a.333.333,0,0,1,.369-.367c.27,0,.278.181.293.377.026.392.041.789.1,1.177.1.72.334,1.013,1.315.8.382-.082.763-.181,1.151-.233.763-.108,1.063-.431,1.065-1.194,0-.075,0-.149,0-.222M14.62,22.974c-.011.22-.114.3-.323.3-.571.022-.813-.231-.88-.886a8.24,8.24,0,0,1,.349-1.184,1.1,1.1,0,0,1,.524-.474c.313-.147.466-.019.446.33-.032.638-.082,1.272-.116,1.91m3.984-.6c-.278.1-.483-.1-.539-.364a6.257,6.257,0,0,1-.129-1.059c-.009-.306.194-.407.474-.261.485.254.476.733.535,1.322-.071.082-.175.3-.341.362" transform="translate(13.955 23.21)" fill="#fff"/>
    <path id="Path_33" data-name="Path 33" d="M16.7,17.6c-.022-1.238-.679-1.619-1.835-1.173a3.338,3.338,0,0,0-.5-.1,4.766,4.766,0,0,0-.7.032,2.48,2.48,0,0,0-1.953,1.115,4.7,4.7,0,0,0-.64,3.514c.142.793.625,1.044,1.391.793a6.2,6.2,0,0,1,2.21-.351,1.57,1.57,0,0,0,1.848-1.412A11.627,11.627,0,0,0,16.7,17.6m-3.3.265c-.095.931-.2,1.863-.3,2.792a.446.446,0,0,1-.052.213,4.733,4.733,0,0,1-.349.371c-.119-.125-.332-.241-.343-.375a5.924,5.924,0,0,1-.015-1.574,13.168,13.168,0,0,1,.589-2.005c.063-.172.276-.291.418-.436l.129.08c-.028.31-.05.623-.082.934m1.951,2.2a1.488,1.488,0,0,1-.112.388c-.106.235-.2.533-.53.459s-.375-.358-.345-.649c.067-.649.144-1.3.218-1.945.037-.343.06-.688.119-1.026.022-.125.134-.334.19-.33a.58.58,0,0,1,.425.2,1.783,1.783,0,0,1,.185.666,7.121,7.121,0,0,1,.006.774l.043,0c-.065.487-.125.977-.2,1.462" transform="translate(12.69 18.778)" fill="#fff"/>
    <path id="Path_34" data-name="Path 34" d="M10.958,17.023c-.244.013-.438.032-.632.03s-.248.095-.315.274a2.558,2.558,0,0,1-.461.854c-.3.323-.632.306-1.072.026a1.52,1.52,0,0,0,.067-1.447c.625-.052,1.188-.1,1.749-.144l3.762-.3c.474-.039.464-.032.466.431,0,.3.086.606.1.912a.418.418,0,0,1-.164.323.909.909,0,0,1-1.285-.606c-.041-.153-.054-.315-.088-.533a4.575,4.575,0,0,0-.718.075.406.406,0,0,0-.2.293c-.127.966-.226,1.936-.356,2.9a1.925,1.925,0,0,1-1.675,1.85,2.557,2.557,0,0,1-.362.069c-.535.054-.979.123-1.048.85a1.011,1.011,0,0,1-1.052.821c-.334,0-.384-.106-.31-.416a4.005,4.005,0,0,0,.1-.947c0-.241.063-.321.3-.345.5-.05,1.007-.112,1.5-.209a1.531,1.531,0,0,0,1.369-1.473c.1-1.078.211-2.156.323-3.3" transform="translate(8.477 18.85)" fill="#fff"/>
    <path id="Path_35" data-name="Path 35" d="M16.786,16.855a.99.99,0,0,0-1.121.761,11.32,11.32,0,0,0-.4,2.13,15.764,15.764,0,0,0,.015,2.068c.013.3.127.558.485.6a.885.885,0,0,0,.992-.444,1.064,1.064,0,0,1,1.194-.576.34.34,0,0,1,.162.231c.069.358.127.718.164,1.08a.379.379,0,0,1-.112.3.914.914,0,0,1-1.235-.14.386.386,0,0,0-.5-.132,11.034,11.034,0,0,1-1.248.343c-.66.127-1.022-.054-1.1-.709-.108-.962-.08-1.938-.1-2.909a3.38,3.38,0,0,1,.045-.44c.168-1.608.975-2.329,2.911-2.738A8.347,8.347,0,0,1,18,16.191c.2-.015.27.08.3.276a5.877,5.877,0,0,0,.239,1c.08.229.013.31-.188.379a1.049,1.049,0,0,1-1.527-.9.473.473,0,0,0-.043-.095" transform="translate(16.161 18.716)" fill="#fff"/>
    <path id="Path_36" data-name="Path 36" d="M40.583,17.365c-.8-.384-1.6-.8-2.417-1.149A18.024,18.024,0,0,0,26.3,15.28c-2.643.673-5.25,1.49-7.893,2.163a45.67,45.67,0,0,1-6.016,1.279c-3.806.436-6.813-1.242-9.308-3.991-.039-.041-.041-.114-.125-.371.386.27.643.433.882.621A11.928,11.928,0,0,0,9.362,17.7a11.843,11.843,0,0,0,4.8-.4q4.091-1.038,8.129-2.294a24.19,24.19,0,0,1,10.524-1.179,17.365,17.365,0,0,1,7.451,3.06c.157.106.313.216.47.323l-.157.155" transform="translate(3.423 15.787)" fill="#ffdf00"/>
  </g>
</svg>
